<!-- ######### TUTORIAL TO MALE YOUR SVG IMAGE FILE WITH CODE -->
<!-- ################### MAIN ELEMENTS  -->
<!--
  *******  THE FOLLWING ARE ESSENTIAL ELEMENTS FOR YOUR SVG FILE
  ##### LINE
  ##### RECTANGLE
  ##### SPHERE
  ##### PATH
  ##### TEXT
  ##### POLYGON
  ##### CIRCLE
  ##### ELLIPSE 
-->

<!-- ################ POSITIONING -->

<!-- 

####### POSITINING IN GIFS WORK WITH X,Y CODINATE SYSTEM 
MEANING YOU HAVE TO PROVIDE THE X,Y CODINATE FOR THE 
ELEMENT YOU ARE PLAYING WITH ... 

####### FOR LINE AND PATH THIS CHANGES 
-->

<!-- yoy should have a tag Kinda like HTML wraps everything -->
<svg width="400" height="300" xmlns="http://www.w3.org/2000/svg" fill="black">

  <!-- rect element represent a rectangle and you can set its properties -->
  <rect height="100%" width="25%" x="0%" y="0" fill="#7469B6"/>
  <rect height="100%" width="25%" x="25%" y="0" fill="#AD88C6"/>
  <rect height="100%" width="25%" x="50%" y="0" fill="#E1AFD1"/>
  <rect height="100%" width="25%" x="75%" y="0" fill="#FFE6E6"/>

  

  <!-- ############# FOR CIRCLES POSITING IS WITH CX -->
  <circle r="30" cx="25%" cy="50%" fill="#AD88C6"/>
  <circle r="30" cx="12.5%" cy="50%" fill="#E1AFD1"/>

  <circle r="30" cx="37.5%" cy="50%" fill="#7469B6" />
  <circle r="30" cx="50%" cy="50%" fill="#E1AFD1"/>


  <circle r="30" cx="62.5%" cy="50%" fill="#AD88C6" />
  <circle r="30" cx="75%" cy="50%" fill="#FFE6E6"/>

  <circle r="30" cx="87.5%" cy="50%" fill="#E1AFD1"/>
  
   

  <ellipse rx="27%" ry="28%" cy="30%" cx="50%" />
  <ellipse rx="10" ry="18" cx="35%" cy="50%" fill="#49243E"/>
  <ellipse rx="5" ry="10" cx="35%" cy="50%" fill="#ff"/>
  <ellipse rx="10" ry="18" cx="65%" cy="50%" fill="#49243E"/>
  <ellipse rx="5" ry="10" cx="65%" cy="50%" fill="#FF"/>
  

  <rect height="50%" width="60%" x="20%" y="77%" fill="#" rx="15%" />
  <rect height="20%" width="10%" x="45%" y="70%" fill="#49243E" ry="50%"/>
  <ellipse ry="25%" rx="15%" fill="#49243E" cx="50%" cy="50%" stroke="black"/>

  
  

  <rect height="15%" width="30%" x="34.9%" y="22%" rx="" fill="#"/>
  <rect height="10%" width="10%" x="39%" y="48%" rx="5" fill="back" stroke="black"/>
  <rect height="10%" width="10%" x="52%" y="48%" rx="5" fill="back" stroke="black"/>

   <line x1="30%" y1="25%" x2="38%" y2="52%" stroke="black" stroke-width="4"/>
  <line x1="63%" y1="52%" x2="71%" y2="25%" stroke="black" stroke-width="4"/>
  <line x1="37.5%" y1="52%" x2="63.5%" y2="52%" stroke="black" stroke-width="4"/>
  <line x1="40%" y1="52%" x2="63.5%" y2="52%" stroke="black" stroke-width="4"/>


  <rect height="100" w="30" x="50%" y="50%" fill="black" rx="10" />

 <text x="50%" y="101%" stroke=""  text-anchor="middle" font-family="verdana" font-size="22" fill="#ffe6e6">NERD</text>

  



</svg>
